<mxfile host="app.diagrams.net" modified="2023-09-14T03:18:16.169Z" agent="5.0 (Macintosh)" etag="VSryoSX8Ja1BjYTXakOd" version="20.2.4" type="github">
  <diagram name="Page-1" id="b520641d-4fe3-3701-9064-5fc419738815">
    <mxGraphModel dx="1298" dy="647" grid="1" gridSize="10" guides="1" tooltips="1" connect="1" arrows="1" fold="1" page="1" pageScale="1" pageWidth="1100" pageHeight="850" background="none" math="0" shadow="0">
      <root>
        <mxCell id="0" />
        <mxCell id="1" parent="0" />
        <mxCell id="21ea969265ad0168-6" value="Login" style="swimlane;html=1;fontStyle=0;childLayout=stackLayout;horizontal=1;startSize=26;fillColor=#e0e0e0;horizontalStack=0;resizeParent=1;resizeLast=0;collapsible=1;marginBottom=0;swimlaneFillColor=#ffffff;align=center;rounded=1;shadow=0;comic=0;labelBackgroundColor=none;strokeWidth=1;fontFamily=Verdana;fontSize=12" parent="1" vertex="1">
          <mxGeometry x="160" y="74" width="160" height="142" as="geometry" />
        </mxCell>
        <mxCell id="21ea969265ad0168-7" value="Super User(CELR)(Todo)" style="text;html=1;strokeColor=none;fillColor=none;spacingLeft=4;spacingRight=4;whiteSpace=wrap;overflow=hidden;rotatable=0;points=[[0,0.5],[1,0.5]];portConstraint=eastwest;" parent="21ea969265ad0168-6" vertex="1">
          <mxGeometry y="26" width="160" height="26" as="geometry" />
        </mxCell>
        <mxCell id="21ea969265ad0168-8" value="Nivel 2(CELR) Solo ve su departamento" style="text;html=1;strokeColor=none;fillColor=none;spacingLeft=4;spacingRight=4;whiteSpace=wrap;overflow=hidden;rotatable=0;points=[[0,0.5],[1,0.5]];portConstraint=eastwest;" parent="21ea969265ad0168-6" vertex="1">
          <mxGeometry y="52" width="160" height="38" as="geometry" />
        </mxCell>
        <mxCell id="21ea969265ad0168-9" value="Nivel 3()" style="text;html=1;strokeColor=none;fillColor=none;spacingLeft=4;spacingRight=4;whiteSpace=wrap;overflow=hidden;rotatable=0;points=[[0,0.5],[1,0.5]];portConstraint=eastwest;" parent="21ea969265ad0168-6" vertex="1">
          <mxGeometry y="90" width="160" height="26" as="geometry" />
        </mxCell>
        <mxCell id="Z6SXaByxtS6GL6tGSPXl-1" value="Row 3" style="text;html=1;strokeColor=none;fillColor=none;spacingLeft=4;spacingRight=4;whiteSpace=wrap;overflow=hidden;rotatable=0;points=[[0,0.5],[1,0.5]];portConstraint=eastwest;" vertex="1" parent="21ea969265ad0168-6">
          <mxGeometry y="116" width="160" height="26" as="geometry" />
        </mxCell>
        <mxCell id="21ea969265ad0168-36" style="edgeStyle=orthogonalEdgeStyle;html=1;labelBackgroundColor=none;startFill=0;startSize=8;endFill=1;endSize=8;fontFamily=Verdana;fontSize=12;" parent="1" source="21ea969265ad0168-6" edge="1">
          <mxGeometry relative="1" as="geometry">
            <mxPoint x="240" y="266" as="targetPoint" />
          </mxGeometry>
        </mxCell>
        <mxCell id="Z6SXaByxtS6GL6tGSPXl-3" value="PERMISOS GESTOR DOCUMENTOS&lt;br&gt;&lt;div align=&quot;left&quot;&gt;C &lt;span style=&quot;white-space: pre;&quot;&gt;	&lt;/span&gt;= &lt;span style=&quot;white-space: pre;&quot;&gt;	&lt;/span&gt;Creador&lt;/div&gt;&lt;div align=&quot;left&quot;&gt;E&lt;span style=&quot;white-space: pre;&quot;&gt;	&lt;/span&gt;=&lt;span style=&quot;white-space: pre;&quot;&gt;	&lt;/span&gt;editor&lt;/div&gt;&lt;div align=&quot;left&quot;&gt;L &lt;span style=&quot;white-space: pre;&quot;&gt;	&lt;/span&gt;= &lt;span style=&quot;white-space: pre;&quot;&gt;	&lt;/span&gt;lector&lt;/div&gt;&lt;div align=&quot;left&quot;&gt;R &lt;span style=&quot;white-space: pre;&quot;&gt;	&lt;/span&gt;= &lt;span style=&quot;white-space: pre;&quot;&gt;	&lt;/span&gt;revisiÃ³n, permisos y aprobaciones&lt;br&gt;&lt;/div&gt;" style="text;html=1;align=left;verticalAlign=middle;resizable=0;points=[];autosize=1;strokeColor=none;fillColor=none;" vertex="1" parent="1">
          <mxGeometry x="340" y="100" width="260" height="90" as="geometry" />
        </mxCell>
      </root>
    </mxGraphModel>
  </diagram>
</mxfile>
